<svg width="37" height="37" viewBox="0 0 37 37" fill="none" xmlns="http://www.w3.org/2000/svg">
<g clip-path="url(#clip0_2_188)">
<path d="M23.125 3.8147e-06C20.5342 0.00196457 17.9727 0.547108 15.6056 1.60025C13.2385 2.6534 11.1186 4.19115 9.38258 6.11425C7.63345 8.0396 6.31376 10.3149 5.51106 12.7892C4.70836 15.2635 4.44101 17.8801 4.72674 20.4656C5.1874 24.4894 6.94273 28.2545 9.72847 31.1943C12.5142 34.1341 16.1796 36.0893 20.1727 36.7657C22.7541 37.1644 25.3884 37.057 27.9288 36.4496C28.594 36.2787 29.2015 35.9332 29.6883 35.4487C30.1752 34.9643 30.5237 34.3585 30.6979 33.6942C30.8721 33.0298 30.8656 32.331 30.6791 31.67C30.4925 31.009 30.1328 30.4099 29.637 29.9345C22.607 23.512 23.2175 13.525 30.8811 7.71913C31.423 7.29384 31.841 6.7311 32.0916 6.08947C32.3422 5.44784 32.4162 4.75077 32.3061 4.0708C32.1959 3.39084 31.9055 2.75283 31.4651 2.22317C31.0247 1.6935 30.4504 1.29155 29.802 1.05913C27.6464 0.354877 25.3927 -0.00261688 23.125 3.8147e-06Z" fill="#30353F"/>
</g>
<defs>
<clipPath id="clip0_2_188">
<rect width="37" height="37" fill="white" transform="matrix(1 0 0 -1 0 37)"/>
</clipPath>
</defs>
</svg>
