<svg width="116" height="116" viewBox="0 0 116 116" fill="none" xmlns="http://www.w3.org/2000/svg">
<g filter="url(#filter0_d_2_191)">
<path d="M58 66.75C53.17 66.75 49.25 62.83 49.25 58C49.25 53.17 53.17 49.25 58 49.25C62.83 49.25 66.75 53.17 66.75 58C66.75 62.83 62.83 66.75 58 66.75ZM59.75 44V38.75C59.75 37.7875 58.9625 37 58 37C57.0375 37 56.25 37.7875 56.25 38.75V44C56.25 44.9625 57.0375 45.75 58 45.75C58.9625 45.75 59.75 44.9625 59.75 44ZM59.75 77.25V72C59.75 71.0375 58.9625 70.25 58 70.25C57.0375 70.25 56.25 71.0375 56.25 72V77.25C56.25 78.2125 57.0375 79 58 79C58.9625 79 59.75 78.2125 59.75 77.25ZM45.75 58C45.75 57.0375 44.9625 56.25 44 56.25H38.75C37.7875 56.25 37 57.0375 37 58C37 58.9625 37.7875 59.75 38.75 59.75H44C44.9625 59.75 45.75 58.9625 45.75 58ZM79 58C79 57.0375 78.2125 56.25 77.25 56.25H72C71.0375 56.25 70.25 57.0375 70.25 58C70.25 58.9625 71.0375 59.75 72 59.75H77.25C78.2125 59.75 79 58.9625 79 58ZM48.7425 48.7425C49.425 48.06 49.425 46.9575 48.7425 46.275L45.2425 42.775C44.56 42.0925 43.4575 42.0925 42.775 42.775C42.0925 43.4575 42.0925 44.56 42.775 45.2425L46.275 48.7425C46.625 49.0925 47.0625 49.25 47.5175 49.25C47.9725 49.25 48.41 49.075 48.76 48.7425H48.7425ZM73.2425 73.2425C73.925 72.56 73.925 71.4575 73.2425 70.775L69.7425 67.275C69.06 66.5925 67.9575 66.5925 67.275 67.275C66.5925 67.9575 66.5925 69.06 67.275 69.7425L70.775 73.2425C71.125 73.5925 71.5625 73.75 72.0175 73.75C72.4725 73.75 72.91 73.575 73.26 73.2425H73.2425ZM45.2425 73.2425L48.7425 69.7425C49.425 69.06 49.425 67.9575 48.7425 67.275C48.06 66.5925 46.9575 66.5925 46.275 67.275L42.775 70.775C42.0925 71.4575 42.0925 72.56 42.775 73.2425C43.125 73.5925 43.5625 73.75 44.0175 73.75C44.4725 73.75 44.91 73.575 45.26 73.2425H45.2425ZM69.7425 48.7425L73.2425 45.2425C73.925 44.56 73.925 43.4575 73.2425 42.775C72.56 42.0925 71.4575 42.0925 70.775 42.775L67.275 46.275C66.5925 46.9575 66.5925 48.06 67.275 48.7425C67.625 49.0925 68.0625 49.25 68.5175 49.25C68.9725 49.25 69.41 49.075 69.76 48.7425H69.7425Z" fill="#0554F1"/>
</g>
<defs>
<filter id="filter0_d_2_191" x="0" y="0" width="116" height="116" filterUnits="userSpaceOnUse" color-interpolation-filters="sRGB">
<feFlood flood-opacity="0" result="BackgroundImageFix"/>
<feColorMatrix in="SourceAlpha" type="matrix" values="0 0 0 0 0 0 0 0 0 0 0 0 0 0 0 0 0 0 127 0" result="hardAlpha"/>
<feOffset/>
<feGaussianBlur stdDeviation="18.5"/>
<feComposite in2="hardAlpha" operator="out"/>
<feColorMatrix type="matrix" values="0 0 0 0 0.0196078 0 0 0 0 0.329412 0 0 0 0 0.945098 0 0 0 0.61 0"/>
<feBlend mode="normal" in2="BackgroundImageFix" result="effect1_dropShadow_2_191"/>
<feBlend mode="normal" in="SourceGraphic" in2="effect1_dropShadow_2_191" result="shape"/>
</filter>
</defs>
</svg>
