<svg width="47" height="32" viewBox="0 0 47 32" fill="none" xmlns="http://www.w3.org/2000/svg">
<g clip-path="url(#clip0_2_206)">
<path d="M2.57989 0H44.4116C45.8335 0 46.9915 1.13333 46.9915 2.525V29.4667C46.9915 30.8583 45.825 31.9917 44.4116 31.9917H2.57989C1.16649 32 0 30.8667 0 29.475V2.525C0 1.13333 1.16649 0 2.57989 0Z" fill="#C1272D"/>
<path d="M47 21.7H0V2.525C0 1.13333 1.16649 0 2.57989 0H44.4116C45.8335 0 46.9915 1.13333 46.9915 2.525V21.7H47Z" fill="#006A44"/>
<path d="M47 10.3H0V2.525C0 1.13333 1.16649 0 2.57989 0H44.4116C45.8335 0 46.9915 1.13333 46.9915 2.525V10.3H47Z" fill="#FDB913"/>
</g>
<defs>
<clipPath id="clip0_2_206">
<rect width="47" height="32" fill="white"/>
</clipPath>
</defs>
</svg>
